<svg width="342" height="142" viewBox="0 0 342 142" fill="none" xmlns="http://www.w3.org/2000/svg">
<path d="M34.206 1.88799C39.588 1.88799 44.385 2.58999 48.597 3.99399C52.809 5.32 56.319 7.27 59.127 9.844C62.013 12.34 64.197 15.382 65.679 18.97C67.161 22.48 67.902 26.458 67.902 30.904C67.902 34.414 67.356 37.924 66.264 41.434C65.25 44.944 63.534 48.142 61.116 51.028C58.776 53.914 55.656 56.254 51.756 58.048C47.856 59.764 43.02 60.622 37.248 60.622H25.08V88H8.115V1.88799H34.206ZM37.131 44.242C39.705 44.242 41.85 43.813 43.566 42.955C45.282 42.097 46.608 41.005 47.544 39.679C48.558 38.353 49.26 36.988 49.65 35.584C50.118 34.102 50.352 32.737 50.352 31.489C50.352 30.553 50.196 29.383 49.884 27.979C49.65 26.497 49.104 25.015 48.246 23.533C47.388 22.051 46.062 20.803 44.268 19.789C42.552 18.775 40.212 18.268 37.248 18.268H25.08V44.242H37.131ZM53.043 54.772L74.337 88H54.564L32.802 55.24L53.043 54.772ZM83.059 45.061C83.059 39.133 84.19 33.517 86.452 28.213C88.714 22.909 91.834 18.229 95.812 14.173C99.868 10.039 104.548 6.802 109.852 4.46199C115.156 2.122 120.85 0.951998 126.934 0.951998C132.94 0.951998 138.595 2.122 143.899 4.46199C149.203 6.802 153.883 10.039 157.939 14.173C162.073 18.229 165.271 22.909 167.533 28.213C169.873 33.517 171.043 39.133 171.043 45.061C171.043 51.145 169.873 56.839 167.533 62.143C165.271 67.447 162.073 72.127 157.939 76.183C153.883 80.161 149.203 83.281 143.899 85.543C138.595 87.805 132.94 88.936 126.934 88.936C120.85 88.936 115.156 87.805 109.852 85.543C104.548 83.281 99.868 80.161 95.812 76.183C91.834 72.127 88.714 67.447 86.452 62.143C84.19 56.839 83.059 51.145 83.059 45.061ZM100.609 45.061C100.609 48.883 101.272 52.471 102.598 55.825C104.002 59.101 105.913 62.026 108.331 64.6C110.827 67.096 113.674 69.046 116.872 70.45C120.148 71.854 123.697 72.556 127.519 72.556C131.185 72.556 134.578 71.854 137.698 70.45C140.896 69.046 143.665 67.096 146.005 64.6C148.345 62.026 150.178 59.101 151.504 55.825C152.83 52.471 153.493 48.883 153.493 45.061C153.493 41.161 152.791 37.534 151.387 34.18C150.061 30.826 148.189 27.901 145.771 25.405C143.431 22.831 140.662 20.842 137.464 19.438C134.266 18.034 130.795 17.332 127.051 17.332C123.307 17.332 119.836 18.034 116.638 19.438C113.44 20.842 110.632 22.831 108.214 25.405C105.796 27.901 103.924 30.826 102.598 34.18C101.272 37.534 100.609 41.161 100.609 45.061ZM187.957 1.88799H204.922V71.62H245.404V88H187.957V1.88799ZM280.109 32.542L279.641 36.871L282.215 33.595L310.295 1.88799H332.291L296.723 40.498L332.408 88H310.88L284.321 51.262L280.109 55.474V88H262.91V1.88799H280.109V32.542ZM30.02 137.192C29.396 137.608 28.5467 138.076 27.472 138.596C26.3973 139.116 25.132 139.549 23.676 139.896C22.2547 140.243 20.6947 140.416 18.996 140.416C16.084 140.381 13.4493 139.861 11.092 138.856C8.76933 137.851 6.79333 136.481 5.164 134.748C3.53467 133.015 2.26933 131.021 1.368 128.768C0.501334 126.48 0.0680002 124.053 0.0680002 121.488C0.0680002 118.68 0.518667 116.097 1.42 113.74C2.356 111.348 3.656 109.285 5.32 107.552C6.984 105.784 8.94267 104.415 11.196 103.444C13.484 102.473 15.98 101.988 18.684 101.988C20.9373 101.988 22.9827 102.3 24.82 102.924C26.6573 103.513 28.2347 104.224 29.552 105.056L27.524 109.736C26.484 109.043 25.2187 108.384 23.728 107.76C22.272 107.136 20.6427 106.824 18.84 106.824C17.0027 106.824 15.2693 107.188 13.64 107.916C12.0107 108.644 10.572 109.667 9.324 110.984C8.076 112.301 7.088 113.844 6.36 115.612C5.66667 117.345 5.32 119.217 5.32 121.228C5.32 123.273 5.632 125.18 6.256 126.948C6.91467 128.681 7.83333 130.189 9.012 131.472C10.2253 132.755 11.6813 133.76 13.38 134.488C15.0787 135.216 16.9853 135.58 19.1 135.58C21.0067 135.58 22.7053 135.285 24.196 134.696C25.6867 134.107 26.9173 133.448 27.888 132.72L30.02 137.192ZM36.1735 121.228C36.1735 118.628 36.6588 116.184 37.6295 113.896C38.6348 111.573 40.0215 109.528 41.7895 107.76C43.5575 105.957 45.5855 104.553 47.8735 103.548C50.1961 102.508 52.6921 101.988 55.3615 101.988C57.9961 101.988 60.4575 102.508 62.7455 103.548C65.0681 104.553 67.1135 105.957 68.8815 107.76C70.6841 109.528 72.0881 111.573 73.0935 113.896C74.0988 116.184 74.6015 118.628 74.6015 121.228C74.6015 123.897 74.0988 126.393 73.0935 128.716C72.0881 131.039 70.6841 133.084 68.8815 134.852C67.1135 136.585 65.0681 137.955 62.7455 138.96C60.4575 139.931 57.9961 140.416 55.3615 140.416C52.6921 140.416 50.1961 139.931 47.8735 138.96C45.5855 137.989 43.5575 136.637 41.7895 134.904C40.0215 133.171 38.6348 131.143 37.6295 128.82C36.6588 126.497 36.1735 123.967 36.1735 121.228ZM41.3735 121.28C41.3735 123.256 41.7375 125.111 42.4655 126.844C43.1935 128.543 44.1988 130.051 45.4815 131.368C46.7641 132.685 48.2548 133.725 49.9535 134.488C51.6521 135.216 53.4895 135.58 55.4655 135.58C57.4068 135.58 59.2268 135.216 60.9255 134.488C62.6241 133.725 64.0975 132.685 65.3455 131.368C66.5935 130.051 67.5815 128.543 68.3095 126.844C69.0375 125.111 69.4015 123.239 69.4015 121.228C69.4015 119.252 69.0375 117.397 68.3095 115.664C67.5815 113.896 66.5761 112.353 65.2935 111.036C64.0108 109.719 62.5201 108.696 60.8215 107.968C59.1228 107.205 57.3028 106.824 55.3615 106.824C53.3855 106.824 51.5481 107.205 49.8495 107.968C48.1508 108.731 46.6601 109.771 45.3775 111.088C44.0948 112.405 43.1068 113.948 42.4135 115.716C41.7201 117.449 41.3735 119.304 41.3735 121.28ZM115.651 141.196L86.5834 111.712L88.0394 112.076L88.1434 140H83.0994V101.26H83.3594L112.115 130.848L110.919 130.588L110.815 102.404H115.807V141.196H115.651ZM146.067 109.112C144.784 108.453 143.38 107.881 141.855 107.396C140.33 106.911 138.839 106.668 137.383 106.668C135.372 106.668 133.76 107.136 132.547 108.072C131.368 109.008 130.779 110.256 130.779 111.816C130.779 112.995 131.16 114 131.923 114.832C132.686 115.629 133.691 116.323 134.939 116.912C136.187 117.501 137.487 118.056 138.839 118.576C140.018 119.027 141.179 119.529 142.323 120.084C143.467 120.639 144.49 121.332 145.391 122.164C146.327 122.996 147.055 124.019 147.575 125.232C148.13 126.445 148.407 127.953 148.407 129.756C148.407 131.732 147.904 133.535 146.899 135.164C145.928 136.793 144.524 138.076 142.687 139.012C140.85 139.948 138.666 140.416 136.135 140.416C134.471 140.416 132.876 140.225 131.351 139.844C129.86 139.463 128.474 138.977 127.191 138.388C125.908 137.764 124.764 137.123 123.759 136.464L125.995 132.512C126.827 133.101 127.78 133.673 128.855 134.228C129.93 134.748 131.056 135.181 132.235 135.528C133.414 135.84 134.558 135.996 135.667 135.996C136.846 135.996 138.007 135.788 139.151 135.372C140.33 134.921 141.3 134.245 142.063 133.344C142.826 132.443 143.207 131.247 143.207 129.756C143.207 128.473 142.86 127.416 142.167 126.584C141.508 125.717 140.624 124.989 139.515 124.4C138.406 123.776 137.227 123.221 135.979 122.736C134.8 122.285 133.604 121.8 132.391 121.28C131.178 120.725 130.051 120.067 129.011 119.304C127.971 118.507 127.139 117.536 126.515 116.392C125.891 115.248 125.579 113.861 125.579 112.232C125.579 110.256 126.047 108.54 126.983 107.084C127.954 105.593 129.271 104.432 130.935 103.6C132.599 102.733 134.506 102.265 136.655 102.196C139.082 102.196 141.214 102.491 143.051 103.08C144.923 103.669 146.57 104.397 147.991 105.264L146.067 109.112ZM161.409 126.688C161.409 128.387 161.807 129.912 162.605 131.264C163.437 132.581 164.529 133.621 165.881 134.384C167.233 135.147 168.758 135.528 170.457 135.528C172.225 135.528 173.802 135.147 175.189 134.384C176.575 133.621 177.667 132.581 178.465 131.264C179.262 129.912 179.661 128.387 179.661 126.688V102.404H184.601V126.844C184.601 129.583 183.959 131.975 182.677 134.02C181.429 136.065 179.73 137.643 177.581 138.752C175.466 139.861 173.091 140.416 170.457 140.416C167.822 140.416 165.447 139.861 163.333 138.752C161.218 137.643 159.537 136.065 158.289 134.02C157.041 131.975 156.417 129.583 156.417 126.844V102.404H161.409V126.688ZM194.92 102.404H199.964V135.164H219.048V140H194.92V102.404ZM220.144 102.404H245.104V107.24H235.016V140H229.972V107.24H220.144V102.404ZM253.115 102.404H258.159V140H253.115V102.404ZM301.511 141.196L272.443 111.712L273.899 112.076L274.003 140H268.959V101.26H269.219L297.975 130.848L296.779 130.588L296.675 102.404H301.667V141.196H301.511ZM341.91 136.776C341.39 137.227 340.662 137.677 339.726 138.128C338.79 138.544 337.75 138.925 336.606 139.272C335.497 139.619 334.336 139.896 333.122 140.104C331.944 140.312 330.834 140.416 329.794 140.416C326.778 140.416 324.057 139.948 321.63 139.012C319.238 138.076 317.176 136.776 315.442 135.112C313.744 133.448 312.426 131.489 311.49 129.236C310.589 126.983 310.138 124.539 310.138 121.904C310.138 118.784 310.641 115.993 311.646 113.532C312.686 111.036 314.09 108.939 315.858 107.24C317.661 105.507 319.724 104.207 322.046 103.34C324.369 102.439 326.83 101.988 329.43 101.988C331.614 101.988 333.642 102.248 335.514 102.768C337.386 103.288 339.033 103.947 340.454 104.744L338.738 109.372C338.045 108.956 337.178 108.575 336.138 108.228C335.133 107.881 334.093 107.604 333.018 107.396C331.944 107.153 330.938 107.032 330.002 107.032C327.784 107.032 325.773 107.379 323.97 108.072C322.168 108.731 320.625 109.701 319.342 110.984C318.06 112.232 317.072 113.757 316.378 115.56C315.685 117.328 315.338 119.321 315.338 121.54C315.338 123.585 315.685 125.457 316.378 127.156C317.072 128.855 318.06 130.328 319.342 131.576C320.625 132.789 322.15 133.743 323.918 134.436C325.721 135.095 327.697 135.424 329.846 135.424C331.129 135.424 332.394 135.303 333.642 135.06C334.89 134.783 335.965 134.401 336.866 133.916V126.428H329.378V121.592H341.91V136.776Z" fill="black"/>
</svg>
